<?xml version="1.0" standalone="no"?><!DOCTYPE svg PUBLIC "-//W3C//DTD SVG 1.1//EN" "http://www.w3.org/Graphics/SVG/1.1/DTD/svg11.dtd"><svg t="1492598517692" class="icon" style="" viewBox="0 0 1024 1024" version="1.1" xmlns="http://www.w3.org/2000/svg" p-id="4281" xmlns:xlink="http://www.w3.org/1999/xlink" width="200" height="200"><defs><style type="text/css"></style></defs><path d="M458.24 444.928l-85.504 242.688h121.344l-63.488 261.12 217.088-367.104h-109.568l65.024-136.704z" p-id="4282" fill="#ffffff"></path><path d="M705.536 294.4h-32.256C660.48 262.656 641.536 230.4 609.28 204.8c-38.4-32.256-83.456-45.056-128-45.056-109.056 0-198.656 89.6-198.656 198.656-76.8 0-140.8 64-140.8 140.8S206.336 640 283.136 640h57.856l84.992-241.152H675.84l-65.024 136.704H732.16L664.576 640h34.304c96.256 0 173.056-76.8 179.2-173.056 0-95.744-76.8-172.544-172.544-172.544z" p-id="4283" fill="#ffffff"></path></svg>