<?xml version="1.0" standalone="no"?><!DOCTYPE svg PUBLIC "-//W3C//DTD SVG 1.1//EN" "http://www.w3.org/Graphics/SVG/1.1/DTD/svg11.dtd"><svg t="1492598134963" class="icon" style="" viewBox="0 0 1024 1024" version="1.1" xmlns="http://www.w3.org/2000/svg" p-id="1025" xmlns:xlink="http://www.w3.org/1999/xlink" width="200" height="200"><defs><style type="text/css"></style></defs><path d="M913.165194 799.090601c2.930749 10.284227 5.51562 23.349801 7.701402 39.151695 2.234901 15.847943 3.327792 31.846312 3.327792 48.043203 0 16.147772-1.291412 31.450293-3.874237 45.760207-2.583848 14.359033-6.40999 25.239847-11.576663 32.593326-3.676739 5.117554-13.066597 10.085706-28.169573 14.904455-15.054881 4.76963-34.035164 9.191336-56.840566 13.216-22.804379 4.073782-48.193629 7.900947-76.115562 11.576663-27.973098 3.677762-55.945173 6.808056-83.868129 9.390881-27.972075 2.582825-55.199183 4.421706-81.680301 5.51562-26.482141 1.092891-49.634444 1.688455-69.509097 1.688455-19.87363 0-42.877553-0.744967-69.010747-2.235924-26.085098-1.490957-52.964282-3.278673-80.539314-5.514597-27.624151-2.186805-55.050804-4.770653-82.22777-7.702426-27.227108-2.979868-52.068889-6.259564-74.477248-9.936303-22.457478-3.676739-41.586141-7.204076-57.435107-10.482749-15.799848-3.328815-25.537629-6.807033-29.214369-10.483772-6.65763-5.166673-11.775184-21.562085-15.501042-49.13814-3.676739-27.574009-2.186805-63.447031 4.471848-107.61702 3.676739-24.990161 13.812587-44.1178 30.30726-57.384965 16.594957-13.214976 35.673477-23.698748 57.435107-31.449269 21.662369-7.699356 44.51689-14.508435 68.365041-20.420075 23.948435-5.862521 44.716434-14.706957 62.404282-26.482141 13.96199-8.79327 24.841781-17.289782 32.543184-25.388227 7.701402-8.099469 13.266142-16.147772 16.544815-24.246217 3.328815-8.098445 4.969175-16.544815 4.969175-25.38925s-0.398066-18.781762-1.092891-29.810956c-1.490957-16.196891-6.807033-28.717042-15.998369-37.510312-9.191336-8.846482-19.327184-18.036795-30.357402-27.576055-5.912663-4.421706-10.881838-10.880815-14.905478-19.328207-4.024663-8.445346-7.899924-17.115819-11.576663-25.934672-3.676739-9.56382-7.005554-20.246113-9.936303-32.021298-1.490957-1.466398-3.676739-4.049223-6.65763-7.725962-2.185782-3.676739-4.76963-8.644891-7.700379-14.905478-2.930749-6.235005-6.210445-15.252379-9.887184-27.027563-3.726881-11.775184-6.111185-22.258956-7.205099-31.450293-1.143033-9.191336-0.944512-17.115819 0.546446-23.724331 0.744967-8.098445 2.583848-15.07944 5.514597-20.966521 0-25.761734 1.440815-51.497884 4.421706-77.259618 2.930749-21.339004 7.750521-44.51689 14.308891-69.532633 6.65763-25.015743 17.289782-47.448662 32.04688-67.322291 13.265118-18.383696 27.574009-33.661657 43.025932-45.784766C381.195374 37.030381 397.192719 27.640524 413.787676 21.032012c16.494673-6.632047 33.288151-11.228739 50.181913-13.811564 16.892739-2.558265 33.089629-3.850701 48.590672-3.850701 16.892739 1.465374 30.704302 3.502777 41.337477 6.061043 10.682293 2.583848 19.327184 5.714142 25.936719 9.390881 6.656607 3.676739 12.320607 8.098445 17.140379 13.240559 4.76963 5.142114 9.738805 10.30981 14.905478 15.451924l20.966521 0c6.607488 0 13.066597 0.918929 19.277042 2.756787 6.261611 1.838881 12.521175 5.341658 18.781762 10.483772 6.259564 5.142114 13.06762 12.520151 20.420075 22.084994 16.942881 22.060435 29.411867 46.156226 37.511335 72.290443 8.098445 26.108634 14.011108 50.92688 17.686824 74.477248 3.677762 27.226085 5.862521 54.081733 6.609535 80.563874 1.439792 3.676739 2.581802 8.098445 3.278673 13.240559 0.744967 5.166673 1.291412 11.401678 1.688455 18.780739 0.347924 7.353478-0.198521 16.544815-1.688455 27.575032-1.440815 14.731516-3.677762 26.307156-6.608511 34.779108-2.931772 8.446369-6.259564 14.880919-9.937326 19.302625-3.676739 5.142114-7.701402 8.818853-12.123109 11.030218-2.931772 11.775184-6.259564 22.457478-9.936303 32.021298-3.676739 8.819876-7.552 17.489326-11.576663 25.934672-4.073782 8.447393-9.042957 14.906501-14.904455 19.328207-12.520151 10.284227-22.805402 18.930141-30.902824 25.935696-8.099469 6.956436-13.614066 18.929118-16.545838 35.82288-2.235924 10.334369-2.930749 20.618597-2.235924 30.902824 0.744967 10.334369 3.527336 20.818141 8.296967 31.448246 4.76963 10.683317 12.520151 20.819165 23.152303 30.359448 10.682293 9.587356 25.588795 18.033725 44.716434 25.388227 16.941857 6.65763 35.524075 12.718673 55.745628 18.234293 20.222577 5.514597 39.698141 11.774161 58.478879 18.730597 18.780739 7.006578 35.524075 15.999392 50.230008 27.077705C896.96728 767.092839 907.253554 781.402753 913.165194 799.090601L913.165194 799.090601zM558.865889 762.671133c2.235924-4.422729 2.435469-9.042957 0.596588-13.812587-1.888-4.76963-4.621251-9.390881-8.296967-13.811564-3.676739-4.371564-8.097422-9.191336-13.265118-14.307867l-50.7785 0c-5.116531 5.116531-9.142218 9.936303-12.123109 14.307867-2.930749 3.677762-5.316076 7.750521-7.154957 12.173251-1.838881 4.421706-1.689479 8.445346 0.546446 12.123109 5.117554 10.285251 9.589402 19.328207 13.265118 27.028587 3.676739 7.749498 7.701402 13.812587 12.123109 18.23327-1.489934 6.608511-3.675716 15.998369-6.656607 28.120454-2.88163 12.173251-5.662977 24.644283-8.247848 37.561477-2.582825 12.869099-4.76963 24.992207-6.658653 36.419468-1.787716 11.377118-2.732228 20.022009-2.732228 25.885554 0 3.725858 1.639337 8.098445 4.968152 13.266142 3.328815 5.166673 7.204076 10.482749 11.576663 15.998369 4.421706 5.514597 9.041934 10.134825 13.812587 13.811564 4.76963 3.677762 9.041934 5.51562 12.718673 5.51562 3.677762 0 8.048303-1.837858 13.217023-5.51562 5.167696-3.676739 10.134825-7.899924 14.904455-12.718673 4.76963-4.76963 8.843412-9.937326 12.123109-15.452947 3.328815-5.51562 4.968152-10.085706 4.968152-13.761422 0-4.422729-1.092891-11.973706-3.278673-22.658046-2.236947-10.632151-4.621251-22.605857-7.205099-35.821857-2.533706-13.266142-5.315052-26.133194-8.295943-38.654368-2.88163-12.520151-5.466502-22.456455-7.701402-29.810956 4.421706-3.675716 8.644891-8.991792 12.669554-15.997346C548.035216 783.837198 553.002344 774.446317 558.865889 762.671133L558.865889 762.671133zM558.865889 762.671133" p-id="1026" fill="#ffffff"></path></svg>