<?xml version="1.0" standalone="no"?><!DOCTYPE svg PUBLIC "-//W3C//DTD SVG 1.1//EN" "http://www.w3.org/Graphics/SVG/1.1/DTD/svg11.dtd"><svg t="1492598409878" class="icon" style="" viewBox="0 0 1024 1024" version="1.1" xmlns="http://www.w3.org/2000/svg" p-id="3541" xmlns:xlink="http://www.w3.org/1999/xlink" width="200" height="200"><defs><style type="text/css"></style></defs><path d="M444.687821 625.725876 263.729751 806.683947C238.710442 831.703256 198.206036 831.703256 173.186727 806.683947L173.186727 806.683947C148.231407 781.728626 148.231407 741.22422 173.186727 716.204912L354.208786 535.246841C379.164107 510.227532 379.164107 469.723127 354.208786 444.767806L354.208786 444.767806C329.189477 419.748497 288.685072 419.748497 263.729751 444.767806L37.468175 670.965394C-12.314491 720.74806-12.314491 802.204787 37.468175 851.987452L127.94721 942.466488C177.729876 992.249153 259.186603 992.249153 308.969268 942.466488L535.166856 716.204912C560.186165 691.249591 560.186165 650.745185 535.166856 625.725876L535.166856 625.725876C510.211535 600.706568 469.70713 600.706568 444.687821 625.725876" p-id="3542" fill="#ffffff"></path><path d="M670.923802 37.522565 444.662226 263.78414C419.706905 288.739461 419.706905 329.243867 444.662226 354.263176L444.662226 354.263176C469.681535 379.218497 510.18594 379.218497 535.205249 354.263176L716.163319 173.241117C741.182628 148.285796 781.687034 148.285796 806.642355 173.241117L806.642355 173.241117C831.661663 198.260426 831.661663 238.764832 806.642355 263.78414L625.684284 444.742211C600.664975 469.697532 600.664975 510.265925 625.684284 535.221246L625.684284 535.221246C650.639605 560.240555 691.207999 560.240555 716.163319 535.221246L942.424895 309.023658C992.143573 259.240992 992.143573 177.784265 942.424895 128.0016L851.881872 37.522565C802.163194-12.260101 720.706468-12.260101 670.923802 37.522565" p-id="3543" fill="#ffffff"></path><path d="M625.677885 444.742211 444.719815 625.700281C419.828482 650.591614 379.068125 650.591614 354.176792 625.700281L354.176792 625.700281C329.285459 600.872936 329.285459 560.112579 354.176792 535.221246L535.19885 354.263176C560.090183 329.371843 600.786553 329.371843 625.677885 354.263176L625.677885 354.263176C650.569218 379.154509 650.569218 419.850878 625.677885 444.742211" p-id="3544" fill="#ffffff"></path></svg>