<?xml version="1.0" standalone="no"?><!DOCTYPE svg PUBLIC "-//W3C//DTD SVG 1.1//EN" "http://www.w3.org/Graphics/SVG/1.1/DTD/svg11.dtd"><svg t="1507484293023" class="icon" style="" viewBox="0 0 1024 1024" version="1.1" xmlns="http://www.w3.org/2000/svg" p-id="3847" xmlns:xlink="http://www.w3.org/1999/xlink" width="32" height="32"><defs><style type="text/css"></style></defs><path d="M661.771607 254.330476v52.238758h-299.978119v-52.238758h299.978119m13.466709-13.46671h-326.910514v79.171154h326.910514v-79.171154z" p-id="3848"></path><path d="M661.771607 319.194786v52.238758h-299.978119v-52.238758h299.978119m13.466709-13.465686h-326.910514v79.171154h326.910514v-79.171154z" p-id="3849"></path><path d="M661.771607 384.252501v52.238758h-299.978119v-52.238758h299.978119m13.466709-13.465686h-326.910514v79.171153h326.910514v-79.171153z" p-id="3850"></path><path d="M463.531614 228.396827v236.532111h-79.171154v-236.532111z" p-id="3851"></path><path d="M450.065927 241.862513v209.599716h-52.238758v-209.599716h52.238758m13.465687-13.466709h-79.171154v236.532111h79.171154v-236.532111z" p-id="3852"></path><path d="M636.50413 228.395804v236.532111h-79.171154v-236.532111z" p-id="3853"></path><path d="M623.037421 241.862513v209.599716h-52.238758v-209.599716h52.238758m13.466709-13.466709h-79.171154v236.532111h79.171154v-236.532111zM461.287503 522.17371v52.238758h-299.978119V522.17371h299.978119m13.465686-13.466709h-326.909491v79.171154h326.909491V508.707001z" p-id="3854"></path><path d="M461.287503 587.039044v52.238758h-299.978119V587.039044h299.978119m13.465686-13.46671h-326.909491v79.171154h326.909491V573.572334z" p-id="3855"></path><path d="M461.287503 652.095735v52.238758h-299.978119v-52.238758h299.978119m13.465686-13.465686h-326.909491v79.171154h326.909491v-79.171154z" p-id="3856"></path><path d="M263.046486 496.239038V732.770126h-79.171153V496.239038z" p-id="3857"></path><path d="M249.5808 509.705748v209.599715h-52.238758V509.705748h52.238758m13.46671-13.46671h-79.171154v236.532111h79.171154V496.239038z" p-id="3858"></path><path d="M436.020026 496.239038v236.532111h-79.171154V496.239038z" p-id="3859"></path><path d="M422.553317 509.705748v209.599715h-52.237735V509.705748h52.237735m13.466709-13.46671h-79.171154v236.532111h79.171154V496.239038z" p-id="3860"></path><path d="M859.555206 522.17371v52.238758H559.577087V522.17371h299.978119m13.466709-13.466709h-326.909491v79.171154h326.909491V508.707001z" p-id="3861"></path><path d="M859.555206 587.039044v52.238758H559.577087V587.039044h299.978119m13.466709-13.46671h-326.909491v79.171154h326.909491V573.572334z" p-id="3862"></path><path d="M859.555206 652.095735v52.238758H559.577087v-52.238758h299.978119m13.466709-13.465686h-326.909491v79.171154h326.909491v-79.171154z" p-id="3863"></path><path d="M661.314189 496.239038V732.770126h-79.170131V496.239038z" p-id="3864"></path><path d="M647.849526 509.705748v209.599715h-52.238758V509.705748h52.238758m13.465686-13.46671h-79.171154v236.532111h79.171154V496.239038z" p-id="3865"></path><path d="M834.287729 496.240061v236.532111h-79.171154V496.240061z" p-id="3866"></path><path d="M820.821019 509.705748v209.599715h-52.237734V509.705748h52.237734m13.46671-13.46671h-79.171154v236.532111h79.171154V496.239038z" p-id="3867"></path><path d="M892.678604 795.604196h-761.356185c-2.814092 0-5.116531-2.302439-5.116531-5.116531v-24.577768c0-2.814092 2.302439-5.116531 5.116531-5.116531h761.356185c2.814092 0 5.116531 2.302439 5.116531 5.116531v24.577768c0 2.814092-2.302439 5.116531-5.116531 5.116531z" p-id="3868"></path></svg>