<?xml version="1.0" standalone="no"?><!DOCTYPE svg PUBLIC "-//W3C//DTD SVG 1.1//EN" "http://www.w3.org/Graphics/SVG/1.1/DTD/svg11.dtd"><svg t="1492597057444" class="icon" style="" viewBox="0 0 1205 1024" version="1.1" xmlns="http://www.w3.org/2000/svg" p-id="4554" xmlns:xlink="http://www.w3.org/1999/xlink" width="235.3515625" height="200"><defs><style type="text/css"></style></defs><path d="M0 1024 0 963.764706 90.352941 963.764706 90.352941 120.470588C90.352941 53.940706 144.293647 0 210.823529 0L632.470588 0C699.000471 0 752.941176 53.940706 752.941176 120.470588L752.941176 361.411765 993.882353 361.411765C1060.412235 361.411765 1114.352941 415.352471 1114.352941 481.882353L1114.352941 963.764706 1204.705882 963.764706 1204.705882 1024 0 1024ZM692.705882 120.470588C692.705882 87.190588 665.750588 60.235294 632.470588 60.235294L210.823529 60.235294C177.543529 60.235294 150.588235 87.190588 150.588235 120.470588L150.588235 963.764706 692.705882 963.764706 692.705882 120.470588ZM1054.117647 481.882353C1054.117647 448.602353 1027.162353 421.647059 993.882353 421.647059L752.941176 421.647059 752.941176 963.764706 1054.117647 963.764706 1054.117647 481.882353ZM993.882353 632.470588 813.176471 632.470588 813.176471 572.235294 993.882353 572.235294 993.882353 632.470588ZM993.882353 813.176471 813.176471 813.176471 813.176471 752.941176 993.882353 752.941176 993.882353 813.176471ZM391.529412 331.294118 210.823529 331.294118 210.823529 271.058824 391.529412 271.058824 391.529412 331.294118ZM391.529412 512 210.823529 512 210.823529 451.764706 391.529412 451.764706 391.529412 512ZM391.529412 692.705882 210.823529 692.705882 210.823529 632.470588 391.529412 632.470588 391.529412 692.705882ZM632.470588 331.294118 451.764706 331.294118 451.764706 271.058824 632.470588 271.058824 632.470588 331.294118ZM632.470588 512 451.764706 512 451.764706 451.764706 632.470588 451.764706 632.470588 512ZM632.470588 692.705882 451.764706 692.705882 451.764706 632.470588 632.470588 632.470588 632.470588 692.705882Z" p-id="4555" fill="#ffffff"></path></svg>