<?xml version="1.0" standalone="no"?><!DOCTYPE svg PUBLIC "-//W3C//DTD SVG 1.1//EN" "http://www.w3.org/Graphics/SVG/1.1/DTD/svg11.dtd"><svg t="1492597705379" class="icon" style="" viewBox="0 0 1024 1024" version="1.1" xmlns="http://www.w3.org/2000/svg" p-id="5249" xmlns:xlink="http://www.w3.org/1999/xlink" width="200" height="200"><defs><style type="text/css"></style></defs><path d="M957.561905 186.953143l-131.705905 0L825.856 50.249143c0-7.777524-2.340571-14.994286-6.095238-21.162667-5.90019-15.09181-20.528762-25.819429-37.668571-25.819429L238.665143 3.267048c-22.381714 0-40.521143 18.139429-40.521143 40.496762 0 1.097143 0.24381 2.145524 0.341333 3.242667C198.38781 48.103619 198.144 49.152 198.144 50.249143l0 136.704-131.657143 0c-29.866667 0-54.00381 24.185905-54.00381 54.00381l0 182.442667c0 22.357333 18.139429 40.496762 40.472381 40.496762 22.381714 0 40.521143-18.139429 40.521143-40.496762l0.097524 0 0-109.177905c0-25.551238 20.72381-46.275048 46.226286-46.275048l744.326095 0c25.575619 0 46.226286 20.72381 46.226286 46.275048l0 579.145143c0 25.575619-20.675048 46.275048-46.226286 46.275048L139.800381 939.641905c-25.526857 0-46.226286-20.72381-46.226286-46.275048l0-184.100571-0.487619 0c-1.706667-20.772571-18.944-37.083429-40.131048-37.083429s-38.424381 16.335238-40.17981 37.083429L12.483048 709.266286l0 257.389714c0 29.817905 24.137143 54.00381 54.00381 54.00381l891.099429 0c29.769143 0 54.00381-24.185905 54.00381-54.00381L1011.590095 240.956952C1011.565714 211.139048 987.331048 186.953143 957.561905 186.953143zM279.137524 84.284952l465.724952 0 0 102.66819L279.137524 186.953143 279.137524 84.284952z" p-id="5250" fill="#ffffff"></path><path d="M546.230857 423.399619l-66.243048 0c-14.896762 0-26.989714 12.092952-26.989714 26.989714l0 93.257143-94.378667 0c-14.896762 0-26.989714 12.092952-26.989714 26.989714l0 66.267429c0 14.921143 12.092952 27.014095 26.989714 27.014095l94.378667 0 0 93.257143c0 14.921143 12.092952 27.014095 26.989714 27.014095l66.243048 0c14.896762 0 26.989714-12.092952 26.989714-27.014095l0-93.257143 92.184381 0c14.945524 0 26.989714-12.092952 26.989714-27.014095l0-66.267429c0-14.896762-12.04419-26.989714-26.989714-26.989714l-92.184381 0 0-93.257143C573.244952 435.492571 561.152 423.399619 546.230857 423.399619z" p-id="5251" fill="#ffffff"></path></svg>